<?xml version="1.0" encoding="UTF-8"?>
<svg width="1554px" height="1314px" viewBox="0 0 1554 1314" version="1.1" xmlns="http://www.w3.org/2000/svg" xmlns:xlink="http://www.w3.org/1999/xlink">
    <!-- Generator: Sketch 61.2 (89653) - https://sketch.com -->
    <title>flow-chart</title>
    <desc>Created with Sketch.</desc>
    <defs>
        <filter x="-2200.0%" y="-1.7%" width="4500.0%" height="103.4%" filterUnits="objectBoundingBox" id="filter-1">
            <feGaussianBlur stdDeviation="6" in="SourceGraphic"></feGaussianBlur>
        </filter>
        <filter x="-2200.0%" y="-1.7%" width="4500.0%" height="103.4%" filterUnits="objectBoundingBox" id="filter-2">
            <feGaussianBlur stdDeviation="6" in="SourceGraphic"></feGaussianBlur>
        </filter>
        <filter x="-2.1%" y="-2200.0%" width="104.1%" height="4500.0%" filterUnits="objectBoundingBox" id="filter-3">
            <feGaussianBlur stdDeviation="6" in="SourceGraphic"></feGaussianBlur>
        </filter>
        <filter x="-2.1%" y="-2200.0%" width="104.1%" height="4500.0%" filterUnits="objectBoundingBox" id="filter-4">
            <feGaussianBlur stdDeviation="6" in="SourceGraphic"></feGaussianBlur>
        </filter>
        <filter x="-1.9%" y="-2200.0%" width="103.7%" height="4500.0%" filterUnits="objectBoundingBox" id="filter-5">
            <feGaussianBlur stdDeviation="6" in="SourceGraphic"></feGaussianBlur>
        </filter>
        <filter x="-1.9%" y="-2200.0%" width="103.7%" height="4500.0%" filterUnits="objectBoundingBox" id="filter-6">
            <feGaussianBlur stdDeviation="6" in="SourceGraphic"></feGaussianBlur>
        </filter>
        <filter x="-2200.0%" y="-2.1%" width="4500.0%" height="104.1%" filterUnits="objectBoundingBox" id="filter-7">
            <feGaussianBlur stdDeviation="6" in="SourceGraphic"></feGaussianBlur>
        </filter>
        <filter x="-2200.0%" y="-2.1%" width="4500.0%" height="104.2%" filterUnits="objectBoundingBox" id="filter-8">
            <feGaussianBlur stdDeviation="6" in="SourceGraphic"></feGaussianBlur>
        </filter>
    </defs>
    <g id="Page-1" stroke="none" stroke-width="1" fill="none" fill-rule="evenodd">
        <g id="flow-chart" transform="translate(0.000000, 11.000000)">
            <path d="M771.099967,1225.41995 C1133.58446,1194.24014 1394.4486,1000.14627 1365.55492,617.601593 C1336.66125,235.056915 1048.47174,0 724.832878,0 C572.305869,0 500.52758,3.22128296 346.301017,134.806915 C206.571653,254.023582 166.484246,462.526717 156.843376,575.284515 C115.827873,1054.99411 408.61547,1256.59976 771.099967,1225.41995 Z" id="Oval" fill="#F3F5F9"></path>
            <g id="GRID_LINES" transform="translate(334.000000, 8.000000)" stroke="#EAEAEA" stroke-linecap="square" stroke-width="9">
                <line x1="418" y1="0.5" x2="418" y2="1275.5" id="Line-35" filter="url(#filter-1)"></line>
                <line x1="684" y1="0.5" x2="684" y2="1275.5" id="Line-35" filter="url(#filter-2)"></line>
                <line x1="1088" y1="247.5" x2="0" y2="247.5" id="Line-35" filter="url(#filter-3)"></line>
                <line x1="1088" y1="1042.5" x2="0" y2="1042.5" id="Line-35" filter="url(#filter-4)"></line>
                <line x1="1201" y1="512.5" x2="0" y2="512.5" id="Line-35" filter="url(#filter-5)"></line>
                <line x1="1201" y1="777.5" x2="0" y2="777.5" id="Line-35" filter="url(#filter-6)"></line>
                <line x1="950" y1="109.5" x2="950" y2="1181.5" id="Line-35" filter="url(#filter-7)"></line>
                <line x1="152" y1="127.5" x2="152" y2="1181.5" id="Line-35" filter="url(#filter-8)"></line>
            </g>
            <path d="M744.48,836.24 L771.423068,822.768476 C794.348058,811.305979 821.331942,811.305979 844.256932,822.768476 C861.643199,831.461613 881.565674,833.64855 900.423731,828.934038 L934.56,820.4 L934.56,947.12 L744.48,947.12 L744.48,836.24 Z" id="Path" fill="#E1264B" fill-rule="nonzero"></path>
            <polygon id="Path" fill="#50B9F5" fill-rule="nonzero" points="760.32 519.44 934.56 519.44 934.56 646.16 760.32 646.16"></polygon>
            <rect id="Rectangle" fill="#2251FF" fill-rule="nonzero" x="364.32" y="820.4" width="221.76" height="126.72" rx="63.36"></rect>
            <rect id="Rectangle" fill="#2251FF" fill-rule="nonzero" x="380.16" y="281.84" width="221.76" height="126.72" rx="63.36"></rect>
            <polygon id="Path" fill="#E1264B" fill-rule="nonzero" points="237.6 519.44 47.52 519.44 15.84 646.16 205.92 646.16"></polygon>
            <polygon id="Path" fill="#2251FF" fill-rule="nonzero" points="491.04 677.84 633.6 582.8 491.04 487.76 348.48 582.8"></polygon>
            <path d="M934.56,503.6 L760.32,503.6 C751.571986,503.600426 744.480426,510.691986 744.48,519.44 L744.48,566.96 L638.395322,566.96 L499.82625,474.580625 C494.505484,471.034404 487.574516,471.034404 482.25375,474.580625 L343.684678,566.96 L242.046783,566.96 L252.966265,523.282051 C254.14935,518.550086 253.086391,513.536935 250.084767,509.692271 C247.083143,505.847608 242.477621,503.600222 237.6,503.6 L142.56,503.6 L142.56,376.88 C142.570006,368.135957 149.655957,361.050006 158.4,361.04 L365.913761,361.04 C373.488879,397.888378 405.901083,424.350648 443.52,424.4 L538.56,424.4 C582.300952,424.4 617.76,388.940952 617.76,345.2 C617.76,301.459048 582.300952,266 538.56,266 L443.52,266 C405.901083,266.049352 373.488879,292.511622 365.913761,329.36 L158.4,329.36 C132.167868,329.390006 110.910006,350.647868 110.88,376.88 L110.88,503.6 L47.52,503.6 C40.2515882,503.59938 33.915793,508.546356 32.1537348,515.597949 L0.4737348,642.317949 C-0.709350405,647.049914 0.353609373,652.063065 3.35523341,655.907729 C6.35685744,659.752392 10.9623793,661.999778 15.84,662 L110.88,662 L110.88,725.36 C110.910006,751.592132 132.167868,772.849994 158.4,772.88 L459.36,772.88 C485.592132,772.849994 506.849994,751.592132 506.88,725.36 L506.88,686.316875 L638.395322,598.64 L744.48,598.64 L744.48,646.16 C744.480426,654.908014 751.571986,661.999574 760.32,662 L839.52,662 L839.52,803.680702 C814.808008,795.213611 787.735621,796.985448 764.338014,808.60122 L737.395322,822.072565 C732.029465,824.755993 728.640058,830.240566 728.64,836.24 L728.64,867.92 L600.326239,867.92 C592.751121,831.071622 560.338917,804.609352 522.72,804.56 L427.68,804.56 C383.939048,804.56 348.48,840.019048 348.48,883.76 C348.48,927.500952 383.939048,962.96 427.68,962.96 L522.72,962.96 C560.338917,962.910648 592.751121,936.448378 600.326239,899.6 L728.64,899.6 L728.64,947.12 C728.640426,955.868014 735.731986,962.96 744.48,962.96 L934.56,962.96 C943.308014,962.96 950.4,955.868014 950.4,947.12 L950.4,820.4 C950.4,815.522379 948.152392,810.916857 944.307729,807.915233 C940.463065,804.913609 935.449914,803.85065 930.717949,805.033735 L896.582293,813.568604 C888.284013,815.636064 879.661744,816.06235 871.2,814.823508 L871.2,662 L934.56,662 C943.308014,661.999574 950.4,654.908014 950.4,646.16 L950.4,519.44 C950.4,510.691986 943.308014,503.600426 934.56,503.6 L934.56,503.6 Z M443.52,297.68 L538.56,297.68 C564.804571,297.68 586.08,318.955429 586.08,345.2 C586.08,371.444571 564.804571,392.72 538.56,392.72 L443.52,392.72 C417.275429,392.72 396,371.444571 396,345.2 C396,318.955429 417.275429,297.68 443.52,297.68 Z M59.8872582,535.28 L217.312742,535.28 L193.552742,630.32 L36.1272582,630.32 L59.8872582,535.28 Z M459.36,741.2 L158.4,741.2 C149.655957,741.189994 142.570006,734.104043 142.56,725.36 L142.56,662 L205.92,662 C213.188412,662.00062 219.524207,657.053644 221.286265,650.002051 L234.126783,598.64 L343.684678,598.64 L475.2,686.316875 L475.2,725.36 C475.189994,734.104043 468.104043,741.189994 459.36,741.2 L459.36,741.2 Z M491.04,658.801845 L377.035322,582.8 L491.04,506.798155 L605.044678,582.8 L491.04,658.801845 Z M522.72,931.28 L427.68,931.28 C401.435429,931.28 380.16,910.004571 380.16,883.76 C380.16,857.515429 401.435429,836.24 427.68,836.24 L522.72,836.24 C548.964571,836.24 570.24,857.515429 570.24,883.76 C570.24,910.004571 548.964571,931.28 522.72,931.28 Z M904.266396,844.301154 L918.72,840.687258 L918.72,931.28 L760.32,931.28 L760.32,846.029793 L778.507389,836.936089 C796.984018,827.751522 818.695982,827.751522 837.172611,836.936089 C857.94272,847.315594 881.739249,849.927803 904.266396,844.301154 L904.266396,844.301154 Z M918.72,630.32 L776.16,630.32 L776.16,535.28 L918.72,535.28 L918.72,630.32 Z" id="Shape" fill="#121212" fill-rule="nonzero"></path>
        </g>
    </g>
</svg>